<mxfile host="app.diagrams.net" modified="2023-04-08T06:17:40.611Z" agent="Mozilla/5.0 (Windows NT 10.0; Win64; x64) AppleWebKit/537.36 (KHTML, like Gecko) Chrome/111.0.0.0 Safari/537.36" version="21.1.5" etag="6BYuM2ywp8nJIRhfm8Up" type="github">
  <diagram name="Страница 1" id="2S5GBbPLfRSblu-3HEh7">
    <mxGraphModel>
      <root>
        <mxCell id="0" />
        <mxCell id="1" parent="0" />
      </root>
    </mxGraphModel>
  </diagram>
</mxfile>
